<?xml version="1.0" encoding="UTF-8"?><svg xmlns="http://www.w3.org/2000/svg" viewBox="0 0 30.26 30.02"><defs><style>.d{fill:#1a83b7;}.e{fill:#b92418;}.f{fill:#e7de00;}.g{fill:#4fae32;}</style></defs><g id="a"/><g id="b"><g id="c"><g><path d="M12.16,11.67c0-.1,0-.2,0-.29,0-3.19,0-6.38,0-9.58,0-.51,.08-.99,.45-1.38,.24-.26,.54-.37,.87-.42h0c-.34,.04-.63,.16-.87,.42-.37,.4-.45,.88-.45,1.38,0,3.19,0,6.38,0,9.58,0,.1,0,.2,0,.29,0,.13-.06,.19-.16,.22h0c.1-.03,.16-.09,.16-.22Z"/><path class="d" d="M18.22,1.67c0,3.35,0,6.7,0,10.05,0,.07,0,.12,.01,.16v-.09s-.01-.03-.01-.07c.01-3.35,0-6.7,0-10.05,0-.51-.13-.96-.53-1.31-.2-.18-.45-.25-.69-.36h0c.24,.11,.49,.18,.69,.36,.4,.35,.53,.8,.53,1.31Z"/><path class="d" d="M18.24,11.85s0,.03,0,.04c0-.01,0-.03,0-.04Z"/><path class="d" d="M12.16,1.8c0,3.19,0,6.38,0,9.58,0,.1,0,.2,0,.29,0,.13-.06,.19-.16,.22l.03,.03h6.2v-.05s-.01-.09-.01-.16c.01-3.35,0-6.7,0-10.05,0-.51-.13-.96-.53-1.31-.2-.18-.45-.25-.69-.36h-3.51c-.34,.04-.63,.16-.87,.42-.37,.4-.45,.88-.45,1.38Z"/><path class="d" d="M18.25,11.92h0s0-.03,0-.03c0-.01,0-.03,0-.04,0-.02,0-.04-.01-.07v.09s.02,.03,.02,.05Z"/><path class="d" d="M18.23,11.92h.02s-.02-.03-.02-.05v.05Z"/></g><g><path class="f" d="M18.4,17.99s.08-.01,.14-.01c3.33,0,6.66,0,9.99,0h0c-3.33,0-6.66,0-9.98,0-.06,0-.11,0-.15,.01Z"/><path class="f" d="M18.24,18.12h.01c.02-.07,.06-.12,.15-.14-.09,.02-.13,.06-.16,.14Z"/><path class="f" d="M28.51,12.02c-3.32,0-6.64,0-9.96,0-.18,0-.26-.03-.29-.14,0,0,0,.03,0,.03h0c.04,.08,.12,.11,.28,.11,3.32,0,6.64,0,9.96,0,1.17,0,1.75,.58,1.75,1.74,0,.83,0,1.66,0,2.49,0,1.14-.58,1.73-1.72,1.73h0c1.14,0,1.72-.59,1.72-1.73,0-.83,0-1.66,0-2.49,0-1.16-.58-1.74-1.75-1.74Z"/><path class="f" d="M30.25,16.25c0-.83,0-1.66,0-2.49,0-1.16-.58-1.74-1.75-1.74-3.32,0-6.64,0-9.96,0-.16,0-.24-.03-.28-.11h-.02v6.2h0c.02-.07,.07-.11,.16-.13,.04,0,.09-.01,.15-.01,3.33,0,6.66,0,9.98,0,1.13,0,1.72-.59,1.72-1.73Z"/></g><g><path d="M11.86,12.04s-.08,.01-.14,.01c-3.33,0-6.66,0-9.99,0h0c3.33,0,6.66,0,9.98,0,.06,0,.11,0,.15-.01Z"/><path class="e" d="M12.02,11.9h-.01c-.02,.07-.06,.12-.15,.14,.09-.02,.13-.06,.16-.14Z"/><path class="e" d="M1.75,18c3.32,0,6.64,0,9.96,0,.18,0,.26,.03,.29,.14,0,0,0-.03,0-.03h0c-.04-.08-.12-.11-.28-.11-3.32,0-6.64,0-9.96,0-1.17,0-1.75-.58-1.75-1.74,0-.83,0-1.66,0-2.49,0-1.14,.58-1.73,1.72-1.73h0C.58,12.04,0,12.63,0,13.78c0,.83,0,1.66,0,2.49,0,1.16,.58,1.74,1.75,1.74Z"/><path class="e" d="M12.02,18.29v-.04s0-.05-.01-.07c0,.03,.01,.07,.01,.11Z"/><path class="e" d="M.01,13.78c0,.83,0,1.66,0,2.49,0,1.16,.58,1.74,1.75,1.74,3.32,0,6.64,0,9.96,0,.16,0,.24,.03,.28,.11h.02v-6.2h0c-.02,.07-.07,.11-.16,.13-.04,0-.09,.01-.15,.01-3.33,0-6.66,0-9.98,0-1.13,0-1.72,.59-1.72,1.73Z"/></g><g><path class="g" d="M18.09,18.35c0,.1,0,.2,0,.29,0,3.19,0,6.38,0,9.58,0,.51-.08,.99-.45,1.38-.24,.26-.54,.37-.87,.42h0c.34-.04,.63-.16,.87-.42,.37-.4,.45-.88,.45-1.38,0-3.19,0-6.38,0-9.58,0-.1,0-.2,0-.29,0-.13,.06-.19,.16-.22h0c-.1,.03-.16,.09-.16,.22Z"/><path class="g" d="M12.03,28.36c0-3.35,0-6.7,0-10.05,0-.07,0-.12-.01-.16v.09s.01,.03,.01,.07c-.01,3.35,0,6.7,0,10.05,0,.51,.13,.96,.53,1.31,.2,.18,.45,.25,.69,.36h0c-.24-.11-.49-.18-.69-.36-.4-.35-.53-.8-.53-1.31Z"/><path class="g" d="M12.01,18.18s0-.03,0-.04c0,.01,0,.03,0,.04Z"/><path class="g" d="M18.09,28.22c0-3.19,0-6.38,0-9.58,0-.1,0-.2,0-.29,0-.13,.06-.19,.16-.22l-.03-.03h-6.2v.05s.01,.09,.01,.16c-.01,3.35,0,6.7,0,10.05,0,.51,.13,.96,.53,1.31,.2,.18,.45,.25,.69,.36h3.51c.34-.04,.63-.16,.87-.42,.37-.4,.45-.88,.45-1.38Z"/><path class="g" d="M12,18.1h0s0,.03,0,.03c0,.01,0,.03,0,.04,0,.02,0,.04,.01,.07v-.09s-.02-.03-.02-.05Z"/><path class="g" d="M12.02,18.1h-.02s.02,.03,.02,.05v-.05Z"/></g><polygon class="d" points="12.04 11.93 15.13 15.02 18.22 11.93 12.04 11.93"/><polygon class="e" points="12.02 11.91 12.02 18.11 12.04 18.11 15.13 15.02 12.02 11.91"/><polygon class="f" points="18.23 11.93 18.22 11.93 15.13 15.02 18.23 18.12 18.23 11.93"/><polygon class="g" points="15.13 15.02 12.04 18.11 18.21 18.11 15.13 15.02"/></g></g></svg>