<?xml version="1.0" standalone="no"?>
<!DOCTYPE svg PUBLIC "-//W3C//DTD SVG 20010904//EN"
 "http://www.w3.org/TR/2001/REC-SVG-20010904/DTD/svg10.dtd">
<svg version="1.0" xmlns="http://www.w3.org/2000/svg"
 width="512.000000pt" height="512.000000pt" viewBox="0 0 512.000000 512.000000"
 preserveAspectRatio="xMidYMid meet">
<metadata>
Created by potrace 1.16, written by Peter Selinger 2001-2019
</metadata>
<g transform="translate(0.000000,512.000000) scale(0.100000,-0.100000)"
fill="#000000" stroke="none">
<path d="M2927 4474 c-43 -13 -131 -98 -937 -897 -532 -527 -897 -896 -907
-917 -24 -52 -28 -123 -9 -173 13 -34 149 -175 708 -732 923 -920 1087 -1080
1125 -1099 46 -23 144 -21 192 4 105 53 148 186 94 295 -8 16 -371 384 -806
817 l-792 788 796 792 c693 690 799 799 814 841 38 102 -9 222 -106 272 -42
22 -119 26 -172 9z"/>
</g>
</svg>
