<?xml version="1.0" encoding="UTF-8"?><svg xmlns="http://www.w3.org/2000/svg" viewBox="0 0 24.95 24.95"><defs><style>.d{fill:#010101;}</style></defs><g id="a"/><g id="b"><g id="c"><path class="d" d="M24.01,0c.03,.08,.12,.06,.18,.09,.77,.34,1,1.32,.44,1.95-.07,.08-.15,.15-.22,.23-3.33,3.33-6.66,6.66-9.99,9.98-.17,.17-.2,.25,0,.44,3.36,3.35,6.72,6.71,10.08,10.07,.48,.48,.58,1.02,.31,1.54-.39,.73-1.34,.88-1.94,.3-.59-.58-1.17-1.17-1.76-1.75-2.82-2.82-5.64-5.63-8.45-8.46-.16-.16-.23-.13-.37,.01-3.36,3.37-6.73,6.74-10.1,10.11-.52,.52-1.18,.59-1.71,.19-.23-.18-.35-.43-.47-.68v-.58c.04-.28,.19-.5,.4-.7,3.33-3.32,6.66-6.65,9.98-9.98,.05-.05,.1-.11,.15-.15,.09-.08,.09-.16,0-.25-.05-.05-.1-.1-.15-.15C7.05,8.87,3.73,5.54,.4,2.21c-.2-.2-.35-.42-.4-.7V.93C.11,.42,.41,.11,.93,0h.58c.28,.04,.5,.19,.7,.4,3.32,3.33,6.65,6.66,9.98,9.99,.05,.05,.11,.1,.15,.15,.08,.09,.16,.09,.25,0,.05-.05,.1-.1,.15-.15,3.33-3.33,6.66-6.66,9.98-9.99,.2-.2,.42-.35,.7-.4h.58Z"/></g></g></svg>