<?xml version="1.0" encoding="UTF-8"?><svg xmlns="http://www.w3.org/2000/svg" viewBox="0 0 311.46 383.24"><g id="a"/><g id="b"><g id="c"><g><path d="M285.77,137.78c-86.65,0-173.3,0-259.96,0-.75,0-1.5,0-2.24,0-3.17-.02-4.53,1.7-4.41,4.71,.21,5.23,.48,10.46,.73,15.69,1.9,39.72,3.8,79.45,5.72,119.17,1.18,24.41,2.15,48.83,3.72,73.21,.87,13.51,8.17,23.23,20.31,29.15,3.06,1.49,6.41,2.37,9.63,3.53H251.58c.28-.2,.54-.51,.84-.57,15.52-2.82,26.66-13.52,29.54-28.79,1.25-6.63,.97-13.42,1.29-20.14,1.68-34.87,3.35-69.73,5.01-104.6,1.34-28.14,2.65-56.29,4.03-84.43,.3-6.07-.4-6.93-6.53-6.93ZM107.89,322.77c-.02,8.91-8.07,14.77-16,11.83-4.72-1.75-7.81-5.99-7.89-11.16-.09-5.61-.03-11.21-.03-16.82,0-45.48,0-90.97,.01-136.45,0-1.74-.05-3.53,.34-5.2,1.4-6.02,7.13-9.93,13.14-9.16,5.96,.77,10.41,5.82,10.43,12.19,.05,25.92,.02,51.84,.02,77.76,0,25.67,.04,51.34-.02,77.01Zm59.88-15.54c0,5.23,.05,10.47-.02,15.7-.09,7.19-5.34,12.5-12.16,12.4-6.63-.1-11.74-5.39-11.75-12.42-.04-25.92-.02-51.84-.02-77.76,0-25.67-.02-51.34,.01-77.01,0-5.53,2.97-9.83,7.76-11.63,4.75-1.78,9.87-.45,13.22,3.41,2.44,2.81,2.98,6.12,2.97,9.73-.05,45.86-.03,91.72-.03,137.57Zm59.84,15.67c0,5.85-3.2,10.18-8.46,11.86-4.77,1.52-9.85-.1-12.99-4.16-1.57-2.03-2.42-4.33-2.46-6.9-.02-1.62-.02-3.24-.02-4.86,0-49.6,0-99.19,0-148.79,0-1.61-.06-3.27,.27-4.83,1.29-6.03,6.92-10.05,12.97-9.41,5.84,.61,10.4,5.55,10.67,11.59,.05,1.12,.02,2.24,.02,3.36,0,24.92,0,49.85,0,74.77,0,25.79,.02,51.59-.02,77.38Z"/><path d="M311.46,78.48c.01-3.01-.39-5.96-1.23-8.85-3.76-12.86-15.05-21.55-28.57-21.62-20.94-.11-41.89-.09-62.83,.03-2.66,.02-3.41-.67-3.22-3.28,.24-3.22,.1-6.48,.02-9.72C215.15,16.02,199.73,.44,180.69,.16c-16.58-.24-33.16-.19-49.74,0-14.71,.16-27.69,9.74-32.83,23.54-2.51,6.74-2.31,13.71-2.12,20.66,.07,2.79-.51,3.73-3.56,3.7-20.82-.15-41.64-.18-62.46-.04C13.4,48.13,.43,61.15,.19,77.69c-.09,6.36,.34,12.74-.1,19.07-.85,12.16,4.5,17.34,17.32,17.23,46-.39,92-.15,138-.15s94.74,0,142.12,0c9.38,0,13.91-4.58,13.92-14.03,0-7.11-.02-14.21,.01-21.32Zm-120.35-31.22c-1.82,2.37-7.21,.64-11.02,.69-8.22,.1-16.44,.03-24.66,.03-10.84,0-21.68-.07-32.51,.06-2.39,.03-3.27-.53-3.07-3.03,.23-2.97,0-5.98,.07-8.97,.17-6.73,5.14-11.92,11.81-11.96,16.07-.11,32.14-.11,48.21,0,6.52,.04,11.56,5.12,11.75,11.61,.12,3.96,1.36,9.04-.57,11.57Z"/></g></g></g></svg>