<?xml version="1.0" encoding="UTF-8"?>
<svg xmlns="http://www.w3.org/2000/svg" viewBox="0 0 129.06 128.96">
  <path
    d="M129.06,21.81c-.08,3.56-1.19,6.76-3.68,9.36-3.14,3.27-6.4,6.42-9.57,9.67-.75,.77-.99,.04-1.34-.3-7.31-7.29-14.61-14.6-21.92-21.9-1.45-1.45-2.9-2.92-4.38-4.35-.46-.44-.49-.7,0-1.17,3.11-3.06,6.13-6.22,9.3-9.23,5.33-5.07,13.81-5.18,19.2-.19,3.05,2.82,5.95,5.81,8.81,8.83,2.44,2.57,3.51,5.76,3.58,9.3Z" />
  <path
    d="M0,125.18c.96-2.41,1.37-4.96,2-7.45,1.98-7.79,3.9-15.6,5.83-23.41,.2-.8,.58-1.45,1.17-2.03,23.32-23.3,46.63-46.61,69.91-69.95,.71-.71,1.01-.57,1.63,.05,8.65,8.69,17.32,17.36,26.02,26.01,.71,.71,.66,1.04-.02,1.72-23.24,23.2-46.46,46.42-69.67,69.65-.7,.7-1.48,1.17-2.46,1.41-10.25,2.52-20.49,5.06-30.73,7.61-.06,.02-.1,.12-.15,.18h-1.51c-1.13-.21-1.8-.89-2.02-2.02v-1.76Z" />
</svg>