<?xml version="1.0" encoding="UTF-8"?>
<svg xmlns="http://www.w3.org/2000/svg" viewBox="0 0 35.85 48.34">
  <path d="M6.24,17.24c0-4.25,0-8.51,0-12.76,0-.42,.07-.48,.5-.41,2.13,.34,4.26,.31,6.4,.08,3.46-.37,6.84-1.22,10.28-1.76,3.9-.61,7.8-.77,11.66,.35,.64,.19,.78,.37,.78,1.03,0,8.17,0,16.33,0,24.5,0,.86-.4,1.19-1.22,.96-3.16-.91-6.36-.92-9.59-.5-2.71,.35-5.37,.98-8.07,1.44-2.87,.48-5.75,.78-8.66,.62-.55-.03-1.09-.13-1.64-.18-.33-.03-.45-.13-.45-.5,.02-4.29,.01-8.57,.01-12.86Z" />
  <path d="M0,24.83c0-7.49,0-14.97,0-22.46C0,1.16,.89,.13,2.02,.01c1.25-.13,2.33,.62,2.61,1.83,.04,.17,.04,.35,.04,.53,0,15,0,30.01,0,45.01,0,.68-.26,.95-.93,.95-.94,0-1.88,0-2.83,0-.67,0-.92-.27-.92-.95C0,39.86,0,32.35,0,24.83Z" />
</svg>