<?xml version="1.0" encoding="UTF-8"?><svg xmlns="http://www.w3.org/2000/svg" viewBox="0 0 383.14 347.05"><g id="a"/><g id="b"><g id="c"><path d="M198.33,140.49c0-10.6-.02-21.2,0-31.8,.02-7.34,4.51-12.31,11.1-12.38,6.81-.07,11.32,4.85,11.33,12.46,.02,16.71,.07,33.42-.06,50.13-.02,2.7,.5,3.56,3.4,3.52,12.72-.18,25.44-.09,38.16-.07,7.58,.01,12.59,4.54,12.55,11.28-.04,6.73-5.03,11.15-12.68,11.16-17.09,.01-34.17,.02-51.26,0-7.96-.01-12.53-4.56-12.55-12.49-.03-10.6,0-21.2,0-31.8Z"/><path d="M0,170.57c2.9-6.26,7.74-8.73,14.63-8.31,6.46,.39,12.96,.01,19.45,.13,1.96,.03,2.43-.61,2.62-2.51,6.65-65.45,39.62-113.09,98.06-142.75C161.83,3.37,191.05-1.89,221.36,.6c62.56,5.14,109.35,35.63,140.4,89.79,16.96,29.58,23.68,61.99,20.69,96.01-5.52,62.66-36.39,109.34-90.96,140.04-29.03,16.33-60.7,22.42-93.95,20.16-26.25-1.78-50.78-9.27-73.67-22.16-13.62-7.67-20.78-22.31-18.2-37.09,2.58-14.78,13.83-26.02,29.12-28.79,8.41-1.53,16.22,.38,23.73,4.4,34.38,18.39,69.01,18.81,102.92-.6,37.42-21.42,55.43-62.44,50.3-102.09-5.77-44.62-39.49-78.15-78.92-87.05-58.17-13.13-114.68,24.66-124.88,83.64-.29,1.71-.41,3.44-.64,5.48,7.55,0,15.01,.1,22.47-.03,5.53-.1,9.84,1.8,12.01,7.05,2.12,5.1,.41,9.39-3.39,13.18-19.43,19.36-38.78,38.8-58.21,58.16-5.75,5.73-11.91,5.74-17.71-.03-19.52-19.44-38.97-38.97-58.49-58.42-1.69-1.68-2.65-3.79-3.97-5.68v-5.99Z"/></g></g></svg>