<?xml version="1.0" encoding="UTF-8"?>
<svg xmlns="http://www.w3.org/2000/svg" viewBox="0 0 344.14 300.41">
  <path
    d="M341.04,134.92c-13.01-10.46-25.98-20.98-39.13-31.27-2.6-2.04-2.35-2.97-.17-5.11,11.84-11.61,23.51-23.39,35.23-35.12,3.61-3.62,3.21-6.07-1.39-8.19C296.18,37.13,256.76,19.08,217.41,.88c-3.29-1.52-5.4-1.07-7.86,1.43-11.63,11.82-23.46,23.44-35.07,35.28-2.04,2.09-3.01,1.82-4.9-.1-11.46-11.64-23.11-23.09-34.56-34.73-2.73-2.77-5.06-3.42-8.82-1.67C87.33,19.14,48.37,37.01,9.42,54.92c-5.8,2.66-6.16,4.59-1.61,9.14,12.33,12.34,24.67,24.67,37.14,37.15-1.24,1.05-2.36,2.03-3.51,2.96-12.82,10.3-25.66,20.58-38.48,30.88-4.24,3.41-3.94,6.09,.94,8.62,37.62,19.52,75.26,39,112.83,58.59,3.23,1.69,5.6,1.49,8.41-.84,14.69-12.15,29.53-24.12,44.23-36.25,1.96-1.62,3.14-1.9,5.29-.12,14.58,12.09,29.39,23.89,43.91,36.06,3.26,2.73,5.79,2.72,9.32,.88,37.36-19.46,74.79-38.8,112.19-58.19,5.1-2.64,5.38-5.32,.96-8.88Zm-104.05-11.5c-20.77,9.55-41.53,19.11-62.29,28.68-1.48,.68-2.73,1.17-4.51,.35-36.53-16.88-73.11-33.68-109.9-50.59,2.8-2.01,5.88-3,8.77-4.34,33.27-15.35,66.57-30.65,99.83-46.04,2.21-1.02,4.02-1.12,6.27-.08,35.3,16.31,70.63,32.54,105.95,48.81,.87,.4,1.95,.58,2.52,1.78-15.55,7.14-31.1,14.28-46.64,21.43Z" />
  <path
    d="M47.19,175.29c21.75,11.3,43.11,22.19,64.24,33.5,7.41,3.96,12.25,4.81,21-2.31,11.86-9.65,23.61-19.43,35.52-29.23,.84,1.05,.51,2.07,.51,2.98,.02,39.02-.02,78.04,.09,117.06,0,3.57-.83,3.41-3.61,2.12-37.97-17.64-75.98-35.19-114-52.71-2.49-1.15-3.98-2.48-3.96-5.53,.1-21.32,.05-42.64,.06-63.95,0-.48,.08-.96,.16-1.93Z" />
  <path
    d="M176.04,300.41v-123.16c1.36-.36,1.86,.74,2.54,1.3,11.95,9.78,23.93,19.52,35.77,29.44,5.22,4.37,10.41,4.94,16.47,1.75,20.87-11.01,41.85-21.82,62.8-32.7,1.09-.57,2.2-1.1,3.25-1.62,1.24,.79,.7,1.89,.7,2.78,.04,20.56,0,41.12,.06,61.68,0,2.89-.69,4.89-3.57,6.22-38.91,17.91-77.78,35.92-116.67,53.9-.32,.15-.68,.22-1.36,.42Z" />
</svg>