<?xml version="1.0" encoding="UTF-8"?><svg xmlns="http://www.w3.org/2000/svg" viewBox="0 0 359.22 359.18"><g id="a"/><g id="b"><g id="c"><path d="M299.26,323.32c-.02,19.73-16.13,35.84-35.86,35.86-19.88,.02-36.05-16.24-35.95-36.15,.1-19.69,16.31-35.73,36.05-35.67,19.72,.06,35.78,16.21,35.76,35.96Z"/><path d="M167.58,323.16c.05,19.75-15.99,35.93-35.7,36.02-19.89,.09-36.14-16.11-36.11-35.99,.03-19.72,16.17-35.82,35.89-35.83,19.74,0,35.87,16.06,35.92,35.8Z"/><path d="M196.41,275.38c-33.29,0-66.58,.04-99.87-.02-18.4-.03-32.82-11.88-36.09-29.46-3.61-19.41,9.5-38.41,28.95-41.5,3.14-.5,3.15-1.51,2.56-3.98-13.69-57.86-27.34-115.72-40.89-173.61-.55-2.34-1.38-2.94-3.65-2.91-11.34,.11-22.69,.07-34.04,.05C5.45,23.94,.01,19.05,0,12-.01,4.9,5.38,.03,13.32,.02c15.09-.02,30.17-.02,45.26,0,7.36,.01,11.54,3.39,13.24,10.58,2.66,11.26,5.46,22.48,7.88,33.79,.64,3.01,1.84,3.58,4.67,3.58,79.17-.08,158.35-.07,237.52-.06,19.58,0,33.97,12.27,37,31.55,1.18,7.5-1.17,14.58-2.84,21.7-7.64,32.57-15.34,65.13-23.05,97.69-4.19,17.69-17.93,28.62-36.09,28.62-66.21,.03-132.41,.01-198.62,.02-1.62,0-3.27-.08-4.84,.22-6.03,1.17-10.15,6.76-9.62,12.83,.51,5.84,5.43,10.53,11.43,10.86,1.24,.07,2.49,.03,3.74,.03,65.96,0,131.91,0,197.87,.01,1.74,0,3.53-.04,5.2,.36,5.87,1.39,9.74,6.94,9.14,12.83-.6,5.86-5.51,10.57-11.55,10.7-7.6,.16-15.21,.05-22.82,.05-26.81,0-53.61,0-80.42,0Z"/></g></g></svg>