<?xml version="1.0" encoding="UTF-8"?>
<svg xmlns="http://www.w3.org/2000/svg" viewBox="0 0 30 30">
  <path d="M29.18,0C19.74,0,10.3,0,.86,0,.21,0,0,.21,0,.86,0,9.25,0,17.64,0,26.03c0,.61,.27,.89,.89,.91,.33,0,.66,0,.99,0,.36,0,.39,.03,.39,.38,0,.59,0,1.17,0,1.76,.01,.53,.2,.77,.68,.93h5.21c.46-.15,.61-.36,.62-.86,0-.6,0-1.21,0-1.81,0-.36,.02-.39,.38-.39,3.9,0,7.8,0,11.7,0,.35,0,.37,.02,.38,.39,0,.6,0,1.21,0,1.81,0,.5,.16,.71,.62,.86h5.21c.17-.06,.35-.11,.47-.27,.15-.21,.2-.44,.2-.69,0-.59,0-1.19,0-1.78,0-.3,.03-.33,.34-.33,.36,0,.72,0,1.08,0,.48,0,.69-.17,.83-.61V.56C29.84,.09,29.71,0,29.18,0Zm-2.34,22.73c0,.67-.29,.95-.96,.95-3.62,0-7.24,0-10.86,0s-7.26,0-10.89,0c-.65,0-.94-.29-.94-.94,0-6.2,0-12.41,0-18.61,0-.64,.3-.94,.95-.94,7.25,0,14.49,0,21.74,0,.67,0,.96,.29,.96,.96,0,6.19,0,12.39,0,18.58Z" />
  <path d="M24.98,4.76c-6.64,0-13.29,0-19.93,0-.25,0-.3,.07-.3,.3,0,5.59,0,11.18,0,16.77,0,.25,.07,.29,.31,.29,3.32,0,6.63,0,9.95,0s6.63,0,9.95,0c.22,0,.31-.03,.31-.29,0-5.6,0-11.2,0-16.8,0-.24-.08-.28-.29-.28Zm-7.75,12.61c-.41-.03-.82,0-1.23,0-.16,0-.23,.04-.22,.21,.01,.18,0,.37,0,.56-.01,.49-.32,.81-.76,.81-.46,0-.77-.33-.78-.83,0-.18-.01-.35,0-.53,.02-.19-.06-.23-.24-.23-.45,.01-.9,0-1.35,0-.45,0-.79-.33-.8-.76,0-.42,.32-.77,.78-.78,.62-.01,1.25,0,1.87,0h0c.62,0,1.25,0,1.87,0,.17,0,.22-.05,.21-.21-.01-.38-.02-.76,0-1.14,.01-.24-.08-.26-.28-.26-1.16,0-2.32,0-3.48,0-.69,0-.97-.28-.97-.97,0-.93,0-1.85,0-2.78,0-.66,.29-.95,.94-.95,.41,0,.82,0,1.23,0,.16,0,.23-.04,.22-.21-.01-.21,0-.43,0-.64,.02-.42,.35-.72,.76-.73,.41,0,.75,.3,.77,.71,0,.12,0,.23,0,.35q0,.51,.53,.51c.35,0,.7,0,1.05,0,.45,0,.79,.34,.8,.76,0,.43-.32,.78-.78,.78-1.22,.01-2.44,.01-3.66,0-.25,0-.32,.06-.3,.31,.02,.34,.02,.68,0,1.02-.01,.22,.04,.3,.28,.29,1.18-.01,2.36,0,3.54,0,.61,0,.91,.3,.92,.91,0,.96,0,1.91,0,2.87,0,.52-.3,.97-.94,.93Z" />
</svg>