<?xml version="1.0" encoding="UTF-8"?>
<svg xmlns="http://www.w3.org/2000/svg" viewBox="0 0 54.55 56.92">
  <path d="M50.29,31.86c-.32-.28-.51-.58-.46-1.05,.17-1.55,.2-3.1,0-4.65-.07-.57,.17-.9,.55-1.23,1.06-.92,2.1-1.87,3.08-2.87,1.16-1.18,1.43-2.97,.6-4.41-1.34-2.32-2.66-4.66-4.04-6.96-.95-1.59-2.7-2.21-4.47-1.66-1.31,.41-2.61,.82-3.92,1.24-.33,.11-.64,.17-.94-.07-1.31-1.02-2.77-1.79-4.26-2.48-.34-.16-.5-.39-.58-.75-.28-1.36-.59-2.71-.92-4.06-.39-1.59-1.29-2.68-3.01-2.89h-9.33c-.56,.09-1.12,.2-1.58,.58-.68,.56-1.17,1.24-1.38,2.1-.34,1.42-.66,2.85-.97,4.28-.07,.32-.16,.58-.51,.73-1.49,.66-2.92,1.44-4.22,2.43-.33,.26-.66,.27-1.04,.14-1.26-.43-2.54-.81-3.81-1.2-1.96-.61-3.64,.02-4.69,1.8-1.28,2.17-2.5,4.37-3.79,6.53-.98,1.65-.78,3.41,.57,4.77,.99,1,2.05,1.93,3.09,2.87,.24,.22,.49,.43,.45,.84-.15,1.57-.25,3.14-.02,4.7,.1,.7-.21,1.1-.68,1.51-1.01,.87-1.99,1.77-2.93,2.72-1.2,1.23-1.45,3.01-.58,4.5,1.3,2.24,2.59,4.49,3.9,6.72,1.05,1.78,2.71,2.4,4.7,1.78,1.26-.39,2.52-.76,3.76-1.19,.43-.15,.77-.11,1.14,.17,1.22,.94,2.57,1.68,3.98,2.31,.42,.19,.62,.45,.71,.89,.29,1.41,.6,2.82,.96,4.22,.44,1.71,1.76,2.71,3.52,2.71h8.11c1.87,0,3.17-.99,3.62-2.8,.34-1.35,.64-2.7,.92-4.06,.09-.46,.29-.75,.72-.96,1.45-.67,2.85-1.42,4.11-2.4,.3-.24,.6-.21,.94-.1,1.29,.42,2.57,.82,3.86,1.22,1.91,.59,3.61-.03,4.63-1.74,1.34-2.26,2.64-4.55,3.95-6.82,.86-1.49,.59-3.26-.63-4.49-1-1.01-2.06-1.97-3.13-2.91Zm-23.07,8.4c-6.59-.08-11.85-5.4-11.77-11.89,.08-6.58,5.43-11.87,11.9-11.76,6.58,.11,11.79,5.37,11.75,11.86-.05,6.57-5.39,11.87-11.87,11.79Z" />
</svg>